<svg xmlns="http://www.w3.org/2000/svg" xmlns:xlink="http://www.w3.org/1999/xlink" viewBox="0 0 1023.675 1030.2936"><defs><style>.cls-1,.cls-2{fill:none;}.cls-1{clip-rule:evenodd;}.cls-3{clip-path:url(#clip-path);}.cls-4{clip-path:url(#clip-path-2);}.cls-5{clip-path:url(#clip-path-3);}.cls-6{clip-path:url(#clip-path-4);}.cls-7{clip-path:url(#clip-path-5);}.cls-8{clip-path:url(#clip-path-6);}.cls-9{fill:#1c54b5;fill-rule:evenodd;}</style><clipPath id="clip-path" transform="translate(71.0579 19.1852)"><path class="cls-1" d="M416.8088,692.501C270.009,715.7063,284.6325,419.5734,192.16,295.12,57.3137,113.6324-69.7312,350.548,44.1355,569.5363q314.3583,604.5951,645.3476,113.07C791.5979,530.965,861.62,363.6433,900.801,161.622c20.0815-103.54,17.2324-91.8742-7.4683-1.8448Q866.6851,256.88,838.6984,333.7317c-20.4638,56.1851-41.311,64.9413-20.6474-7.45,22.3965-78.46,29.68-109.8562,27.2881-112.4757-3.3843-3.712-26.1729,50.2569-52.9131,109.9565,1.5928-25.9566,34.8428-131.7611,2.5244-38.3156-8.6982,25.15-24.6689,103.125-45.2168,110.2156-7.7051,2.6654-.2666-28.6921-.7373-29.37-.522-.7459-31.4468,58.3032-7.9868-37.34a494.0754,494.0754,0,0,1,17.7241-56.2042c9.8223-26,21.3428-56.4209,31.3877-83.6679,38.5166-104.4766,28.835-90.92-13.3291-9.2977-12.0513,23.3343-25.6821,50.3232-38.8892,76.6361C674.9934,381.7374,508.18,678.059,416.8088,692.501Zm397.56-455.059c-4.9439,10.8859-6.5821,10.0588-2.3736-4.4714,4.5137-15.5522,10.0254-12.3664,2.3736,4.4714ZM761.0773,341.033c-10.1093,22.25-13.4648,20.5625-4.8535-9.1326,9.2237-31.806,20.4937-25.2876,4.8535,9.1326ZM929.1081,51.6079c-14.1562,40.1338-20.0249,38.2458-9.3506-13.9554,11.4331-55.9185,31.2476-48.142,9.3506,13.9554ZM828.2629,92.8311c-11.2686,21.0249-14.5166,18.9463-4.335-9.6856,10.9048-30.6695,21.7671-22.8354,4.335,9.6856Zm40.9028,59.7821c-4.5107-4.0314-11.2778-.0139-15.5117,9.1852-5.0151,10.9034-5.2622,31.8424-6.5674,43.4359,6.4815-6.9728,19.1494-16.807,23.5259-28.2837,3.689-9.6836,3.0669-20.3056-1.4468-24.3374Z"/></clipPath><clipPath id="clip-path-2" transform="translate(71.0579 19.1852)"><rect class="cls-2" x="-69.7312" y="-18.266" width="1020.7363" height="1028.5548"/></clipPath><clipPath id="clip-path-3" transform="translate(71.0579 19.1852)"><path class="cls-1" d="M315.007,629.6436C388.6594,775.0342,539.2648,812.01,689.4831,682.6067Q358.5171,1174.13,44.1355,569.5363C-69.7312,350.548,57.3137,113.6324,192.16,295.12c57.5341,77.43,73.6123,221.3192,112.9023,313.406q4.7314,11.0934,9.9448,21.1179Z"/></clipPath><clipPath id="clip-path-4" transform="translate(71.0579 19.1852)"><rect class="cls-2" x="-69.7312" y="113.6324" width="759.2144" height="896.6564"/></clipPath><clipPath id="clip-path-5" transform="translate(71.0579 19.1852)"><path class="cls-1" d="M192.16,295.12c57.5341,77.43,73.6123,221.3192,112.9023,313.406q4.7314,11.0934,9.9448,21.1179C388.6594,775.0342,539.2648,812.01,689.4831,682.6067q-20.5107,30.4618-40.96,56.7136c-74.1743,52.0583-147.0468,64.3949-209.2334,44.0562-45.9653-15.0308-78.7651-40.2586-103.4072-71.99C224.3264,567.736,246.5944,284.8741,99.007,262.2086c-42.0009-6.45-76.7763,26.5116-94.3613,80.2349C24.7263,232.9063,106.882,180.346,192.16,295.12Z"/></clipPath><clipPath id="clip-path-6" transform="translate(71.0579 19.1852)"><rect class="cls-2" x="4.6457" y="180.346" width="684.8374" height="631.6639"/></clipPath></defs><g id="Calque_2" data-name="Calque 2"><g id="Calque_1-2" data-name="Calque 1"><g class="cls-3"><g class="cls-4"><image width="2132" height="2146" transform="matrix(0.48, 0, 0, -0.48, 0.3149, 1030.08)" xlink:href="Fichier%205V_logo1.png"/></g></g><g class="cls-5"><g class="cls-6"><image width="1588" height="1871" transform="matrix(0.48, 0, 0, -0.48, 0, 1030.2936)" xlink:href="Fichier%205V_logo2.png"/></g></g><g class="cls-7"><g class="cls-8"><image width="1432" height="1319" transform="matrix(0.48, 0, 0, -0.48, 74.5386, 831.9267)" xlink:href="Fichier%205V_logo3.png"/></g></g><path class="cls-9" d="M476.6545,656.0829c62.7964,51.94,139.9443,64.1179,212.8286,26.5238C539.2648,812.01,388.6594,775.0342,315.007,629.6436c22.8907,43.7428,53.67,70.4661,101.8018,62.8574,17.5815-2.7786,37.957-15.9919,59.8457-36.4181Z" transform="translate(71.0579 19.1852)"/></g></g></svg>